<?xml version="1.0" encoding="UTF-8"?>
<svg version="1.1" xmlns="http://www.w3.org/2000/svg" width="482" height="518">
<path d="M0 0 C19.67453202 -0.08242996 36.16696377 5.08917376 52.57568359 16.02832031 C52.57568359 16.68832031 52.57568359 17.34832031 52.57568359 18.02832031 C54.22568359 18.68832031 55.87568359 19.34832031 57.57568359 20.02832031 C57.57568359 20.68832031 57.57568359 21.34832031 57.57568359 22.02832031 C58.13255859 22.23457031 58.68943359 22.44082031 59.26318359 22.65332031 C61.83755342 24.18402669 63.40701415 26.04037528 65.23193359 28.39550781 C66.60490814 30.12545212 66.60490814 30.12545212 68.48583984 31.88378906 C75.95592942 39.54935762 80.29797332 48.98522941 83.57568359 59.02832031 C83.96884766 60.08664063 84.36201172 61.14496094 84.76708984 62.23535156 C91.45169614 82.6152488 89.00705838 106.30687184 79.51318359 125.34082031 C78.53815157 127.23878342 77.55941144 129.13484971 76.57568359 131.02832031 C75.90636749 132.36032563 75.23854166 133.69308947 74.57568359 135.02832031 C73.91568359 135.02832031 73.25568359 135.02832031 72.57568359 135.02832031 C72.30755859 135.77082031 72.03943359 136.51332031 71.76318359 137.27832031 C70.62291609 139.9189398 69.48188054 141.88384875 67.57568359 144.02832031 C66.91568359 144.02832031 66.25568359 144.02832031 65.57568359 144.02832031 C64.91568359 145.34832031 64.25568359 146.66832031 63.57568359 148.02832031 C62.91568359 148.02832031 62.25568359 148.02832031 61.57568359 148.02832031 C60.91568359 149.34832031 60.25568359 150.66832031 59.57568359 152.02832031 C58.91568359 152.02832031 58.25568359 152.02832031 57.57568359 152.02832031 C57.24568359 153.01832031 56.91568359 154.00832031 56.57568359 155.02832031 C51.20425502 159.02832031 51.20425502 159.02832031 48.57568359 159.02832031 C48.57568359 159.68832031 48.57568359 160.34832031 48.57568359 161.02832031 C40.12842763 165.47687523 31.83115876 169.49536926 22.57568359 172.02832031 C21.62761841 172.29322266 21.62761841 172.29322266 20.66040039 172.56347656 C-1.61903579 178.21725894 -23.50195816 173.21849206 -43.42431641 163.02832031 C-43.42431641 162.36832031 -43.42431641 161.70832031 -43.42431641 161.02832031 C-43.98119141 160.92519531 -44.53806641 160.82207031 -45.11181641 160.71582031 C-47.90122651 159.88653623 -50.03822281 158.68532976 -52.42431641 157.02832031 C-52.42431641 156.36832031 -52.42431641 155.70832031 -52.42431641 155.02832031 C-53.00181641 154.76019531 -53.57931641 154.49207031 -54.17431641 154.21582031 C-56.47981683 152.99902842 -58.44487833 151.72498152 -60.42431641 150.02832031 C-60.42431641 149.36832031 -60.42431641 148.70832031 -60.42431641 148.02832031 C-61.08431641 148.02832031 -61.74431641 148.02832031 -62.42431641 148.02832031 C-67.42431641 142.55212984 -67.42431641 142.55212984 -67.42431641 140.02832031 C-68.08431641 140.02832031 -68.74431641 140.02832031 -69.42431641 140.02832031 C-70.49071285 138.40333526 -71.47141984 136.72235866 -72.42431641 135.02832031 C-73.23659134 133.7990049 -74.04911058 132.5698509 -74.86181641 131.34082031 C-80.66245308 121.97991263 -82.93404492 111.62074267 -85.42431641 101.02832031 C-85.69018555 100.05668945 -85.69018555 100.05668945 -85.96142578 99.06542969 C-90.87813712 77.42775069 -82.09200143 55.29555086 -71.42431641 37.02832031 C-70.76431641 37.02832031 -70.10431641 37.02832031 -69.42431641 37.02832031 C-69.17681641 36.30644531 -68.92931641 35.58457031 -68.67431641 34.84082031 C-66.80297459 30.63030123 -63.91569303 27.04360013 -60.42431641 24.02832031 C-59.76431641 24.02832031 -59.10431641 24.02832031 -58.42431641 24.02832031 C-58.42431641 23.36832031 -58.42431641 22.70832031 -58.42431641 22.02832031 C-56.41862817 20.36097766 -54.42620481 18.84067464 -52.29931641 17.34082031 C-51.66840088 16.89528809 -51.03748535 16.44975586 -50.38745117 15.99072266 C-34.73334123 5.19197088 -18.95037068 0.22137392 0 0 Z " fill="#01B0B6" transform="translate(238.42431640625,162.9716796875)"/>
<path d="M0 0 C3.6477774 0.96558814 5.510324 2.3873816 7.82421875 5.24609375 C11.04177226 9.21588271 14.68819992 12.08013267 18.8125 15.0625 C19.51955078 15.58199219 20.22660156 16.10148437 20.95507812 16.63671875 C31.12688062 24.07175528 40.80134188 30.48224743 53 34 C53.94488281 34.28101563 54.88976562 34.56203125 55.86328125 34.8515625 C76.22931259 40.27912253 95.03241038 36.22130076 113.12792969 26.09960938 C117.13064504 23.74851001 120.95455407 21.15208703 124.7421875 18.46875 C127 17 127 17 129 17 C129 16.34 129 15.68 129 15 C131.08203125 13.08984375 131.08203125 13.08984375 133.8125 10.9375 C134.70582031 10.22464844 135.59914063 9.51179688 136.51953125 8.77734375 C139 7 139 7 142 6 C143.09166275 4.06669397 143.09166275 4.06669397 144 2 C144.66 1.34 145.32 0.68 146 0 C146.99 0 147.98 0 149 0 C149.05607422 1.81757812 149.05607422 1.81757812 149.11328125 3.671875 C150.17310021 32.56941118 154.59982924 60.73650635 176.5 81.6875 C196.96491492 100.27498997 225.78491491 102.12402731 252 103 C251.17901682 106.94611638 249.65110936 108.79509038 246.875 111.75 C245.64716797 113.08417969 245.64716797 113.08417969 244.39453125 114.4453125 C243.00505562 115.92772206 241.60967141 117.40472249 240.19921875 118.8671875 C225.41547338 134.74471832 213.96195523 158.06506153 214.71484375 180.0625 C215.78844851 191.12209973 218.19700239 200.938024 223 211 C223.28359375 211.66773438 223.5671875 212.33546875 223.859375 213.0234375 C226.3085701 218.49946805 229.89698406 223.20523097 233.47143555 227.98974609 C235.86963975 231.23499111 237.55898677 234.24792782 239 238 C241.01735205 239.34410262 241.01735205 239.34410262 243 240 C243 240.66 243 241.32 243 242 C243.66 242 244.32 242 245 242 C245 242.66 245 243.32 245 244 C245.66 244 246.32 244 247 244 C252 249.47619048 252 249.47619048 252 252 C251.19481934 252.07516846 250.38963867 252.15033691 249.56005859 252.2277832 C246.49900069 252.51759139 243.43878154 252.81492289 240.37890625 253.11694336 C238.4328288 253.30685662 236.48595142 253.48851624 234.5390625 253.66992188 C217.4989496 255.36523923 200.41608231 258.34519258 186 268 C185.01 268.598125 184.02 269.19625 183 269.8125 C169.54234998 279.6253698 161.56343902 291.42237073 156 307 C155.64228516 307.9758606 155.64228516 307.9758606 155.27734375 308.97143555 C153.34143743 314.4563038 152.17832926 319.8090024 151.375 325.5625 C151.25020264 326.42294922 151.12540527 327.28339844 150.99682617 328.16992188 C149.71248683 337.40830171 149 346.66869446 149 356 C146.75 355.8125 146.75 355.8125 144 355 C142.65322527 353.34417592 141.3218504 351.67578849 140 350 C120.395076 332.30155159 97.89258481 317.99575959 70.61328125 318.64453125 C51.04019882 320.57009936 33.40230961 329.47532676 18.26245117 341.67431641 C15.60046853 343.81775321 13.0552658 345.49329358 10 347 C8.73195434 349.0335948 8.73195434 349.0335948 8 351 C7.34 351 6.68 351 6 351 C5.7525 351.639375 5.505 352.27875 5.25 352.9375 C4 355 4 355 1.921875 355.62890625 C1.28765625 355.75136719 0.6534375 355.87382812 0 356 C-0.02578125 354.96746094 -0.0515625 353.93492187 -0.078125 352.87109375 C-0.99591238 326.52753677 -5.60231627 296.33453425 -25.15234375 276.85546875 C-28.82581942 273.56664959 -28.82581942 273.56664959 -33 271 C-33 270.34 -33 269.68 -33 269 C-33.84111328 268.83757812 -33.84111328 268.83757812 -34.69921875 268.671875 C-37.37777244 267.88968275 -39.41552903 266.67860943 -41.8125 265.25 C-60.91335411 254.71421142 -82.68966954 253.5873033 -104 252 C-102.41987986 248.50116255 -101.39126684 247.69563342 -98 246 C-96.89163577 244.11683841 -96.89163577 244.11683841 -96 242 C-94.5 239.75 -94.5 239.75 -93 238 C-92.34 238 -91.68 238 -91 238 C-90.74605469 237.443125 -90.49210937 236.88625 -90.23046875 236.3125 C-88.81735804 233.65674907 -87.12897344 231.39817319 -85.3125 229 C-73.95855224 213.52483708 -63.43423285 192.90413301 -66 173 C-68.4432347 158.02930561 -73.1726997 145.34005259 -81.42578125 132.6171875 C-83 130 -83 130 -83 128 C-83.66 128 -84.32 128 -85 128 C-85.95596367 126.58720413 -86.90561077 125.16960851 -87.81835938 123.72851562 C-90.23154518 120.1984835 -93.33378939 117.22747163 -96.28515625 114.1484375 C-100 110.20329346 -100 110.20329346 -100 108 C-100.66 108 -101.32 108 -102 108 C-102 107.34 -102 106.68 -102 106 C-102.66 106 -103.32 106 -104 106 C-103.67 105.01 -103.34 104.02 -103 103 C-102.42781738 102.98541748 -101.85563477 102.97083496 -101.26611328 102.95581055 C-75.67547966 102.23289686 -53.18956549 99.20240604 -31.77734375 84.1015625 C-30 83 -30 83 -28 83 C-28 82.34 -28 81.68 -28 81 C-27.34 81 -26.68 81 -26 81 C-26 80.34 -26 79.68 -26 79 C-23.91057584 76.797634 -21.76922261 74.69432462 -19.515625 72.66015625 C-9.84528287 62.06764232 -5.22682505 44.90852555 -2.875 31.125 C-2.61734863 29.63891235 -2.61734863 29.63891235 -2.35449219 28.12280273 C-0.81518738 18.76816346 -0.22095359 9.46786149 0 0 Z M7 15 C7.2165625 16.8253125 7.2165625 16.8253125 7.4375 18.6875 C7.51871094 19.37199219 7.59992188 20.05648437 7.68359375 20.76171875 C7.96287094 22.98941545 7.96287094 22.98941545 8.50048828 25.09765625 C9.60066058 31.49005521 9.34730894 38.11354353 9.4050293 44.58813477 C9.42644406 46.38488174 9.46034615 48.18152923 9.50756836 49.9777832 C9.83171931 62.45817154 8.66281877 72.73828108 3 84 C2.34 84.66 1.68 85.32 1 86 C1 86.99 1 87.98 1 89 C0.34 89 -0.32 89 -1 89 C-1 89.66 -1 90.32 -1 91 C-1.66 91 -2.32 91 -3 91 C-6.02517909 94.05558423 -6.02517909 94.05558423 -7 98 C-7.57621094 98.26039063 -8.15242188 98.52078125 -8.74609375 98.7890625 C-11.1558252 100.08371891 -12.98677603 101.59802508 -15.0625 103.375 C-19.99277158 107.28185441 -25.01642147 109.22178159 -31 111 C-32.5778125 111.52400391 -32.5778125 111.52400391 -34.1875 112.05859375 C-38.93988649 113.23208263 -43.4962161 113.54664643 -48.375 113.75 C-49.34018555 113.79237793 -50.30537109 113.83475586 -51.29980469 113.87841797 C-60.04825659 114.16868519 -68.36667532 113.28444788 -77 112 C-79.01938172 111.7780369 -81.04008195 111.56734186 -83.0625 111.375 C-85.0115625 111.189375 -85.0115625 111.189375 -87 111 C-84.52214891 113.80104906 -81.87022643 115.80240595 -78.75 117.8125 C-74.68711115 120.43826784 -71.16166012 123.38245056 -67.62890625 126.6796875 C-66.09051486 128.20989348 -66.09051486 128.20989348 -64 128 C-63.67 128.99 -63.34 129.98 -63 131 C-61.12491838 133.2085766 -61.12491838 133.2085766 -59 135 C-58.34 135 -57.68 135 -57 135 C-56.74992187 135.55429688 -56.49984375 136.10859375 -56.2421875 136.6796875 C-54.78575865 139.40018668 -53.01142707 141.6833227 -51.125 144.125 C-41.25111696 157.60078956 -41.70214607 170.98643224 -42 187 C-42.00515625 187.90492188 -42.0103125 188.80984375 -42.015625 189.7421875 C-42.49215044 199.03443355 -48.13989013 207.47771262 -53.8984375 214.4765625 C-55.19531521 215.95678781 -55.19531521 215.95678781 -55 218 C-55.66 218 -56.32 218 -57 218 C-58.60059293 219.62092592 -58.60059293 219.62092592 -60.25 221.6875 C-62.50075728 224.35349133 -64.70049545 226.71010091 -67.4375 228.875 C-68.283125 229.57625 -69.12875 230.2775 -70 231 C-70 231.66 -70 232.32 -70 233 C-70.66 233 -71.32 233 -72 233 C-72 233.66 -72 234.32 -72 235 C-72.83337891 235.14308594 -72.83337891 235.14308594 -73.68359375 235.2890625 C-76.58332995 236.17903213 -78.59778498 237.61289605 -81.0625 239.375 C-82.34833984 240.28378906 -82.34833984 240.28378906 -83.66015625 241.2109375 C-85.62381451 242.71236569 -87.28139572 244.23769451 -89 246 C-88.04802734 245.78923828 -87.09605469 245.57847656 -86.11523438 245.36132812 C-76.59939076 243.35642722 -67.4377847 242.46903152 -57.71826172 242.49902344 C-55.49967039 242.50000015 -53.28450727 242.45806274 -51.06640625 242.4140625 C-35.86442462 242.28691862 -22.64815232 245.75925559 -11 256 C-10.19949219 256.70253906 -9.39898437 257.40507812 -8.57421875 258.12890625 C2.50629093 268.53899854 8.84344081 281.18769563 9.45378113 296.44493103 C9.51132317 299.48403492 9.5079541 302.51879557 9.46655273 305.55810547 C9.43760913 307.86629699 9.44599439 310.1721728 9.45898438 312.48046875 C9.44240837 322.61608772 8.212682 332.11584413 6 342 C8.77615588 340.61192206 9.53494532 338.42325537 10.98046875 335.78125 C12 334 12 334 13.75 331.6875 C15.19840918 330.0821538 15.19840918 330.0821538 15 328 C15.66 328 16.32 328 17 328 C18.78305524 325.36107824 19.99059621 323.02821137 21 320 C22.33333333 319.33333333 23.66666667 318.66666667 25 318 C25.33 317.01 25.66 316.02 26 315 C26.66 315 27.32 315 28 315 C28 314.34 28 313.68 28 313 C28.66 313 29.32 313 30 313 C30 312.34 30 311.68 30 311 C31.32 310.34 32.64 309.68 34 309 C34 308.34 34 307.68 34 307 C34.73863281 306.72929687 35.47726563 306.45859375 36.23828125 306.1796875 C38.87009145 305.05549135 40.87899851 303.79682285 43.1875 302.125 C55.96153838 293.43185241 70.81904593 292.66718093 85.8203125 294.30859375 C87.95292674 294.74046724 89.94146526 295.29767638 92 296 C92.78117188 296.24492187 93.56234375 296.48984375 94.3671875 296.7421875 C100.5908603 298.93307543 105.45513543 302.26232805 110.65234375 306.29296875 C112.96732088 308.15696782 112.96732088 308.15696782 116 309 C116 309.66 116 310.32 116 311 C116.66 311 117.32 311 118 311 C118 311.66 118 312.32 118 313 C118.66 313 119.32 313 120 313 C120 313.66 120 314.32 120 315 C120.66 315 121.32 315 122 315 C122 315.66 122 316.32 122 317 C123.63902789 318.69385452 125.31094922 320.3560222 127 322 C132.24303024 328.00614251 136.97384188 334.11656837 141 341 C142.31615133 337.32963693 141.62981395 334.93875293 140.58984375 331.2421875 C138.86544938 324.19705775 138.50826462 317.38703009 138.55395508 310.17138672 C138.5624676 308.13275925 138.53356501 306.09694742 138.50195312 304.05859375 C138.43828031 291.99313906 140.30408034 280.28301948 147 270 C147 269.34 147 268.68 147 268 C147.66 268 148.32 268 149 268 C149.37125 266.824375 149.37125 266.824375 149.75 265.625 C151.15389099 262.67682892 152.00675737 262.0975223 155 261 C155 260.34 155 259.68 155 259 C155.66 259 156.32 259 157 259 C157 258.34 157 257.68 157 257 C157.66 257 158.32 257 159 257 C159 256.34 159 255.68 159 255 C161.475 254.01 161.475 254.01 164 253 C164 252.34 164 251.68 164 251 C165.08861328 250.566875 165.08861328 250.566875 166.19921875 250.125 C167.93542593 249.42761134 169.66800728 248.72102795 171.39453125 248 C172.19246094 247.67 172.99039062 247.34 173.8125 247 C174.60269531 246.67 175.39289063 246.34 176.20703125 246 C184.59884132 242.99537989 192.42184514 242.65838075 201.25097656 242.68432617 C203.46731318 242.68745387 205.68226835 242.66409119 207.8984375 242.63867188 C217.90791789 242.59650648 227.23837737 243.81652263 237 246 C234.94202898 242.91304347 234.40077816 242.53720632 231.25 241.0625 C226.53962205 238.56155014 222.64943106 235.39661416 218.625 231.9375 C218.01817383 231.41873291 217.41134766 230.89996582 216.78613281 230.36547852 C213.79191702 227.75076995 211.37749669 225.19811652 209 222 C208.34 222 207.68 222 207 222 C206.34 220.68 205.68 219.36 205 218 C204.34 218 203.68 218 203 218 C202.72929687 217.26007813 202.45859375 216.52015625 202.1796875 215.7578125 C201.05715049 213.13360345 199.80597339 211.16565286 198.125 208.875 C189.76759344 196.61474588 188.65226661 181.73722241 190.30859375 167.3125 C192.91452372 154.3981568 199.26824445 144.52155642 208.20703125 135.1015625 C210.21634763 133.20682958 210.21634763 133.20682958 210 131 C210.639375 130.731875 211.27875 130.46375 211.9375 130.1875 C214.33131686 129.11332248 214.33131686 129.11332248 215 126 C217.5625 124.8125 217.5625 124.8125 220 124 C220 123.34 220 122.68 220 122 C220.5775 121.731875 221.155 121.46375 221.75 121.1875 C224.04703887 119.97517393 225.95545023 118.59730451 228 117 C230.57270344 114.99007543 233.03564992 113.37630539 236 112 C236 111.67 236 111.34 236 111 C234.41632253 111.14204741 232.83306682 111.28880153 231.25 111.4375 C230.36828125 111.51871094 229.4865625 111.59992188 228.578125 111.68359375 C226.08529645 111.93384642 226.08529645 111.93384642 224.04296875 112.5 C207.23073064 116.61465866 183.38727706 115.43403052 168 107 C165.59798564 105.39865709 163.91907273 104.08594862 162 102 C160.96490646 101.13787965 159.92254302 100.28444968 158.875 99.4375 C156 97 156 97 155 95 C154.34 95 153.68 95 153 95 C153 94.34 153 93.68 153 93 C152.34 93 151.68 93 151 93 C150.72929687 92.42765625 150.45859375 91.8553125 150.1796875 91.265625 C149.05150798 88.99227979 149.05150798 88.99227979 147.6328125 86.984375 C139.40078633 74.78562119 138.64510411 62.18484404 138.5625 47.875 C138.55234863 46.62493164 138.54219727 45.37486328 138.53173828 44.08691406 C138.60351526 36.38554726 139.5477848 29.3952296 141.45678711 21.93017578 C141.9773612 19.12211725 141.96813851 17.64198528 141 15 C138.7226499 17.81509993 138.7226499 17.81509993 139 21 C138.34 21 137.68 21 137 21 C134.03764305 24.63323689 134.03764305 24.63323689 133 29 C132.34 29 131.68 29 131 29 C128.60179695 31.63684747 128.60179695 31.63684747 128 35 C127.34 35 126.68 35 126 35 C122.97482091 38.05558423 122.97482091 38.05558423 122 42 C120.68 42.66 119.36 43.32 118 44 C118 44.66 118 45.32 118 46 C115.525 46.99 115.525 46.99 113 48 C113 48.66 113 49.32 113 50 C112.43152344 50.27070312 111.86304688 50.54140625 111.27734375 50.8203125 C108.92738066 52.03761757 106.77988064 53.43164599 104.5625 54.875 C90.86241225 62.95250838 74.54218022 64.47789698 58.98046875 61.3046875 C50.11176973 58.80083179 41.84858321 54.18581709 35 48 C34.67 47.34 34.34 46.68 34 46 C32.515 45.505 32.515 45.505 31 45 C29.46484375 43.37109375 29.46484375 43.37109375 27.9375 41.4375 C26.47246535 39.5289778 26.47246535 39.5289778 25 38 C24.34 38 23.68 38 23 38 C22.01 35.525 22.01 35.525 21 33 C20.34 33 19.68 33 19 33 C19 32.34 19 31.68 19 31 C18.34 31 17.68 31 17 31 C16.690625 30.01 16.690625 30.01 16.375 29 C14.79545644 25.55372314 12.75696879 22.84770489 10.4375 19.8671875 C9.22583894 18.29334515 8.10176115 16.65264172 7 15 Z " fill="#06B1B7" transform="translate(165,72)"/>
<path d="M0 0 C6.09802296 5.09670556 9.97763201 9.56794219 10.97265625 17.56640625 C11.36099443 26.5370182 9.88382942 33.25485988 3.9921875 40.140625 C-1.50888073 45.38523317 -7.99750849 47.39975971 -15.49609375 47.67578125 C-22.74205534 47.40658144 -28.51306499 45.12287703 -33.82421875 40.140625 C-39.72844046 33.39089581 -41.23208709 26.58654486 -40.94140625 17.73046875 C-40.18616563 12.62968976 -38.20879264 8.60233953 -35.43359375 4.30078125 C-34.77359375 4.30078125 -34.11359375 4.30078125 -33.43359375 4.30078125 C-33.43359375 3.64078125 -33.43359375 2.98078125 -33.43359375 2.30078125 C-32.77359375 2.30078125 -32.11359375 2.30078125 -31.43359375 2.30078125 C-31.43359375 1.64078125 -31.43359375 0.98078125 -31.43359375 0.30078125 C-20.9545794 -5.2897599 -10.34620009 -7.22407229 0 0 Z " fill="#05B1B7" transform="translate(254.43359375,412.69921875)"/>
<path d="M0 0 C7.26698308 4.01396186 10.9854667 9.81986899 13.625 17.5625 C14.74375572 25.88839784 13.56276369 32.7064684 8.625 39.5625 C3.98194969 44.51815172 -0.30113823 48.29275295 -7.203125 48.8984375 C-8.67684039 48.92819777 -10.15098727 48.94052836 -11.625 48.9375 C-12.38554687 48.93661377 -13.14609375 48.93572754 -13.9296875 48.93481445 C-19.6911541 48.81292776 -23.62473359 48.02623592 -28.375 44.5625 C-28.87 43.0775 -28.87 43.0775 -29.375 41.5625 C-30.70670865 40.89259382 -32.04016179 40.22614838 -33.375 39.5625 C-38.24911823 33.24935638 -38.44669987 25.64939254 -38.3125 18 C-36.43868797 11.12935589 -31.65890322 4.19521997 -25.55078125 0.44140625 C-17.03349727 -3.97779495 -8.71553963 -3.87717315 0 0 Z " fill="#04B1B6" transform="translate(435.375,226.4375)"/>
<path d="M0 0 C1.10601562 0.07863281 2.21203125 0.15726562 3.3515625 0.23828125 C6.15213731 0.65438733 7.96771657 1.24900136 10.375 2.6875 C10.375 3.3475 10.375 4.0075 10.375 4.6875 C11.096875 4.8525 11.81875 5.0175 12.5625 5.1875 C17.63685634 7.89382338 20.09540731 13.11424526 21.75 18.5 C23.34737397 26.22824741 21.9192722 33.75305438 18.375 40.6875 C17.715 40.6875 17.055 40.6875 16.375 40.6875 C16.23771484 41.59628906 16.23771484 41.59628906 16.09765625 42.5234375 C14.95972175 45.93109002 12.62299004 46.8452424 9.6171875 48.578125 C1.73428787 52.47837499 -4.99244355 51.69122056 -13.375 49.875 C-16.81037431 48.61976708 -19.00641528 47.22673367 -21.625 44.6875 C-21.625 44.0275 -21.625 43.3675 -21.625 42.6875 C-22.285 42.6875 -22.945 42.6875 -23.625 42.6875 C-23.625 42.0275 -23.625 41.3675 -23.625 40.6875 C-24.285 40.6875 -24.945 40.6875 -25.625 40.6875 C-29.75499042 32.0218951 -31.2653006 24.83845204 -28.1875 15.5625 C-25.26371624 8.91848959 -19.38124002 3.41016389 -12.625 0.6875 C-8.29389208 -0.29684271 -4.41738019 -0.34656261 0 0 Z " fill="#05B1B7" transform="translate(112.625,94.3125)"/>
<path d="M0 0 C6.95489413 4.33355059 11.12570357 10.21754064 13.06640625 18.125 C14.57596859 26.39359371 12.28752689 33.20489386 8.5 40.5 C7.84 40.5 7.18 40.5 6.5 40.5 C5.84 41.82 5.18 43.14 4.5 44.5 C3.51 44.5 2.52 44.5 1.5 44.5 C1.5 45.16 1.5 45.82 1.5 46.5 C-6.14547735 49.60251255 -13.50632663 50.96160853 -21.5625 48.5 C-28.40413153 45.51632702 -34.01637733 40.45993957 -37.0625 33.625 C-39.68253006 25.63086177 -39.40437575 19.77281813 -35.8125 12.125 C-33.63664301 7.86324392 -31.47123581 5.20736916 -27.5 2.5 C-26.84 2.5 -26.18 2.5 -25.5 2.5 C-25.5 1.84 -25.5 1.18 -25.5 0.5 C-17.80017555 -2.46147094 -7.73402909 -3.42723642 0 0 Z " fill="#03B0B6" transform="translate(121.5,356.5)"/>
<path d="M0 0 C4.90556988 3.19928471 7.79828424 7.23673223 9.59375 12.859375 C11.05674718 20.56824478 10.55316557 28.01619182 7 35 C4.5625 37.75 4.5625 37.75 2 40 C1.443125 40.70125 0.88625 41.4025 0.3125 42.125 C-4.1746116 45.76319859 -9.85433037 46.77010683 -15.5 47.375 C-23.19396999 46.55064607 -29.5306972 44.72368897 -35 39 C-40.80822276 31.07682655 -41.52380666 24.75589908 -41 15 C-40.02116292 10.8587662 -38.45854849 7.48294369 -36 4 C-35.34 4 -34.68 4 -34 4 C-34 3.34 -34 2.68 -34 2 C-23.77244499 -7.44082001 -11.34071102 -7.10848916 0 0 Z " fill="#04B0B7" transform="translate(71,229)"/>
<path d="M0 0 C5.44776675 6.65838158 6.98943237 13.02134329 6.69921875 21.59765625 C6.00611526 26.46143466 4.20458373 29.87847649 1.25 33.75 C0.81558594 34.32492188 0.38117188 34.89984375 -0.06640625 35.4921875 C-5.0395596 41.18793578 -12.18497091 43.84869569 -19.625 44.375 C-26.51164203 44.10215364 -33.39604973 40.607594 -38.59765625 36.17578125 C-39.75 34.75 -39.75 34.75 -39.75 32.75 C-40.41 32.75 -41.07 32.75 -41.75 32.75 C-44.20718107 27.71800685 -45.30306914 23.52278168 -45.25 17.875 C-45.24500488 17.17463623 -45.24000977 16.47427246 -45.23486328 15.75268555 C-45.00073431 8.78129352 -43.02148151 4.21443753 -38.29296875 -0.79296875 C-26.08108961 -11.78043784 -11.80889142 -9.66182025 0 0 Z " fill="#05B1B7" transform="translate(258.75,48.25)"/>
<path d="M0 0 C6.16380946 3.80234999 11.07287968 9.40613903 13.375 16.3125 C14.2073163 25.00441076 14.21774476 32.00639851 9.01953125 39.359375 C4.44035315 44.79782881 -1.49941111 48.44352575 -8.625 49.3125 C-16.32105909 49.91611248 -23.63496528 48.28414007 -29.6875 43.375 C-32.17664267 41.17869765 -33.05209782 39.58723714 -33.625 36.3125 C-34.285 36.3125 -34.945 36.3125 -35.625 36.3125 C-38.53031031 28.5611321 -39.15493603 20.08905592 -35.9375 12.3125 C-34.05337588 8.664515 -31.73227593 6.02140722 -28.625 3.3125 C-27.9134375 2.4771875 -27.9134375 2.4771875 -27.1875 1.625 C-20.68603409 -3.83623137 -7.34062045 -3.46017796 0 0 Z " fill="#05B1B7" transform="translate(381.625,356.6875)"/>
<path d="M0 0 C3.30096935 3.2707407 5.28251806 6.88772512 7.1328125 11.11328125 C7.6278125 12.10328125 7.6278125 12.10328125 8.1328125 13.11328125 C8.80333809 21.48935504 8.71444108 27.9544866 4.1328125 35.11328125 C3.4728125 35.11328125 2.8128125 35.11328125 2.1328125 35.11328125 C1.9471875 35.67015625 1.7615625 36.22703125 1.5703125 36.80078125 C-0.89755738 40.7708328 -4.70920916 43.53995697 -9.234375 44.7421875 C-18.66697625 46.07170845 -26.33327237 45.45936947 -34.5546875 40.48828125 C-41.33962022 33.51997197 -43.24289452 26.17045952 -43.13671875 16.73046875 C-42.59435322 9.45176617 -40.12734285 4.97154181 -34.8046875 0.05078125 C-31.33430768 -2.88671875 -31.33430768 -2.88671875 -27.8671875 -2.88671875 C-27.8671875 -3.54671875 -27.8671875 -4.20671875 -27.8671875 -4.88671875 C-17.54019796 -6.67408232 -8.55683267 -6.64461444 0 0 Z " fill="#03B0B6" transform="translate(386.8671875,99.88671875)"/>
<path d="M0 0 C0.99 0 1.98 0 3 0 C3 5.61 3 11.22 3 17 C1.35 17.66 -0.3 18.32 -2 19 C-2.33 19.99 -2.66 20.98 -3 22 C-3.66 22 -4.32 22 -5 22 C-5 20.02 -5 18.04 -5 16 C-5.99 18.475 -5.99 18.475 -7 21 C-7.66 21 -8.32 21 -9 21 C-9.28875 21.763125 -9.5775 22.52625 -9.875 23.3125 C-11 26 -11 26 -13 29 C-13.66 29 -14.32 29 -15 29 C-15.309375 29.61875 -15.61875 30.2375 -15.9375 30.875 C-16.625 32.25 -17.3125 33.625 -18 35 C-18.66 35 -19.32 35 -20 35 C-20.66 36.32 -21.32 37.64 -22 39 C-22.66 38.34 -23.32 37.68 -24 37 C-22.7260411 34.96166576 -21.38938077 32.96147874 -20 31 C-19.34 31 -18.68 31 -18 31 C-17.34 29.68 -16.68 28.36 -16 27 C-15.34 27 -14.68 27 -14 27 C-15.14083176 23.96707046 -15.14083176 23.96707046 -17 21 C-19.58414426 20.03093173 -19.58414426 20.03093173 -22 20 C-20.625 18.5 -20.625 18.5 -19 17 C-18.34 17 -17.68 17 -17 17 C-17 16.34 -17 15.68 -17 15 C-14.91796875 13.08984375 -14.91796875 13.08984375 -12.1875 10.9375 C-10.84751953 9.86822266 -10.84751953 9.86822266 -9.48046875 8.77734375 C-7 7 -7 7 -4 6 C-2.90833725 4.06669397 -2.90833725 4.06669397 -2 2 C-1.34 1.34 -0.68 0.68 0 0 Z " fill="#13B5BA" transform="translate(311,72)"/>
<path d="M0 0 C4.31228993 3.8049617 6.88819904 7.96415921 9.66796875 12.98828125 C10.10753906 13.65214844 10.54710937 14.31601562 11 15 C11.66 15 12.32 15 13 15 C13.19916016 15.92232422 13.19916016 15.92232422 13.40234375 16.86328125 C13.57894531 17.67152344 13.75554687 18.47976563 13.9375 19.3125 C14.19853516 20.51326172 14.19853516 20.51326172 14.46484375 21.73828125 C14.99886159 24.145401 14.99886159 24.145401 16 27 C15.95875 25.96875 15.9175 24.9375 15.875 23.875 C15.99575149 20.13170373 16.64872018 17.46265453 18 14 C18.33 14 18.66 14 19 14 C19 19.61 19 25.22 19 31 C13.32711072 29.86542214 13.21821343 29.33677693 10 25 C8.31139763 23.49488356 6.57934151 22.03745338 4.8125 20.625 C3.37390625 19.47064453 3.37390625 19.47064453 1.90625 18.29296875 C-2.04651925 15.17431882 -6.00661402 12.06652602 -10 9 C-9.34 8.67 -8.68 8.34 -8 8 C-7.01 8.33 -6.02 8.66 -5 9 C-5 9.66 -5 10.32 -5 11 C-4.34 11 -3.68 11 -3 11 C-3 9.35 -3 7.7 -3 6 C-2.34 5.67 -1.68 5.34 -1 5 C-0.34444881 2.47266765 -0.34444881 2.47266765 0 0 Z " fill="#13B7BB" transform="translate(295,397)"/>
<path d="M0 0 C1.65 0 3.3 0 5 0 C4.67 1.65 4.34 3.3 4 5 C4.66 5 5.32 5 6 5 C6 4.34 6 3.68 6 3 C9.63 3.66 13.26 4.32 17 5 C16.34 5.66 15.68 6.32 15 7 C19.77290898 10.46789954 19.77290898 10.46789954 24.75 13.625 C26.84416613 14.90476819 28.36107144 16.18855264 30 18 C26.86650268 19.04449911 26.01031744 18.93423645 23 18 C23 17.34 23 16.68 23 16 C21.68 16 20.36 16 19 16 C18.896875 16.639375 18.79375 17.27875 18.6875 17.9375 C18.460625 18.618125 18.23375 19.29875 18 20 C17.01 20.33 16.02 20.66 15 21 C14.40832031 20.26394531 13.81664063 19.52789062 13.20703125 18.76953125 C12.41683594 17.79371094 11.62664062 16.81789062 10.8125 15.8125 C10.03519531 14.84957031 9.25789063 13.88664063 8.45703125 12.89453125 C6.03000093 9.94467869 6.03000093 9.94467869 3.19921875 7.26171875 C1 5 1 5 1 3 C0.34 3 -0.32 3 -1 3 C-0.67 2.01 -0.34 1.02 0 0 Z " fill="#14B6BA" transform="translate(64,177)"/>
<path d="M0 0 C0.33 0.66 0.66 1.32 1 2 C1.66 2.33 2.32 2.66 3 3 C2.01 3.495 2.01 3.495 1 4 C0.34 3.67 -0.32 3.34 -1 3 C-0.67 3.66 -0.34 4.32 0 5 C0.99 5.33 1.98 5.66 3 6 C3 5.34 3 4.68 3 4 C4.32 4.33 5.64 4.66 7 5 C7 4.34 7 3.68 7 3 C7.99 3.33 8.98 3.66 10 4 C8.35 5.32 6.7 6.64 5 8 C5.99 8 6.98 8 8 8 C9.65 8 11.3 8 13 8 C11.35 10.97 9.7 13.94 8 17 C1.07 16.67 -5.86 16.34 -13 16 C-10.8533403 11.70668059 -10.78496772 11.89248386 -7 10 C-5.89163577 8.11683841 -5.89163577 8.11683841 -5 6 C-3.5 3.75 -3.5 3.75 -2 2 C-1.34 2 -0.68 2 0 2 C0 1.34 0 0.68 0 0 Z " fill="#0CB3B8" transform="translate(74,308)"/>
<path d="M0 0 C3.51973101 3.25901019 6.52760275 6.8860931 9 11 C9 11.66 9 12.32 9 13 C10.32 13.66 11.64 14.32 13 15 C13 15.66 13 16.32 13 17 C13.66 17 14.32 17 15 17 C15.33 17.99 15.66 18.98 16 20 C14.875 21.5625 14.875 21.5625 13 23 C9.9375 22.875 9.9375 22.875 7 22 C6.34 21.01 5.68 20.02 5 19 C2.85485013 17.63407396 2.85485013 17.63407396 0.4375 16.4375 C-3.8934338 14.2131324 -3.8934338 14.2131324 -5 12 C-2.69 12.33 -0.38 12.66 2 13 C2.33 11.35 2.66 9.7 3 8 C2.01 8.33 1.02 8.66 0 9 C0.020625 8.21625 0.04125 7.4325 0.0625 6.625 C0.18684063 4.01885039 0.18684063 4.01885039 -1 2 C-0.67 1.34 -0.34 0.68 0 0 Z " fill="#18B8BC" transform="translate(395,297)"/>
<path d="M0 0 C0.94875 0.845625 1.8975 1.69125 2.875 2.5625 C7.33372472 6.39865125 12.14105687 9.69552761 17 13 C13.93109813 14.53445094 11.29905734 13.54984289 8 13 C7.67 14.98 7.34 16.96 7 19 C3.69855718 17.89951906 3.29303304 17.38212433 1.4375 14.625 C1.02371094 14.01914063 0.60992187 13.41328125 0.18359375 12.7890625 C-0.20699219 12.19867188 -0.59757813 11.60828125 -1 11 C-1.66 10.01 -2.32 9.02 -3 8 C-3.33 7.01 -3.66 6.02 -4 5 C-3.01 5 -2.02 5 -1 5 C-0.67 3.35 -0.34 1.7 0 0 Z " fill="#14B4B8" transform="translate(174,79)"/>
<path d="M0 0 C0.33 0.66 0.66 1.32 1 2 C1.66 2.33 2.32 2.66 3 3 C2.01 3.495 2.01 3.495 1 4 C0.34 3.67 -0.32 3.34 -1 3 C-0.67 3.66 -0.34 4.32 0 5 C0.99 5.33 1.98 5.66 3 6 C3 5.34 3 4.68 3 4 C4.32 4.33 5.64 4.66 7 5 C7 4.34 7 3.68 7 3 C7.99 3.33 8.98 3.66 10 4 C9.236875 4.598125 8.47375 5.19625 7.6875 5.8125 C5.05498457 7.77924106 5.05498457 7.77924106 3.625 9.8125 C2 11 2 11 -1.5 10.625 C-2.655 10.41875 -3.81 10.2125 -5 10 C-5.99 10.33 -6.98 10.66 -8 11 C-8 11.66 -8 12.32 -8 13 C-7.34 13.33 -6.68 13.66 -6 14 C-9 16 -9 16 -13 16 C-11.58226538 12.45566346 -10.32387762 11.66193881 -7 10 C-5.89163577 8.11683841 -5.89163577 8.11683841 -5 6 C-3.5 3.75 -3.5 3.75 -2 2 C-1.34 2 -0.68 2 0 2 C0 1.34 0 0.68 0 0 Z " fill="#00ABB7" transform="translate(74,308)"/>
<path d="M0 0 C1.65 0 3.3 0 5 0 C4.67 1.65 4.34 3.3 4 5 C4.66 5 5.32 5 6 5 C6 4.34 6 3.68 6 3 C9.63 3.66 13.26 4.32 17 5 C15.02 7.64 13.04 10.28 11 13 C7.76414639 11.38207319 6.16753932 10.44195891 3.75 8 C3.22921875 7.484375 2.7084375 6.96875 2.171875 6.4375 C1 5 1 5 1 3 C0.34 3 -0.32 3 -1 3 C-0.67 2.01 -0.34 1.02 0 0 Z " fill="#16B9BD" transform="translate(64,177)"/>
<path d="M0 0 C0.99 0 1.98 0 3 0 C3 5.61 3 11.22 3 17 C1.35 17.66 -0.3 18.32 -2 19 C-2.33 19.99 -2.66 20.98 -3 22 C-3.66 22 -4.32 22 -5 22 C-5.67090715 14.75420281 -3.58125682 10.24161903 0 4 C-0.66 3.34 -1.32 2.68 -2 2 C-1.34 1.34 -0.68 0.68 0 0 Z " fill="#1EBEC2" transform="translate(311,72)"/>
<path d="M0 0 C2.70717195 1.35358597 4.77351562 2.9492907 7 5 C7 9.26649636 6.43160605 10.63316085 4 14 C3.34 14 2.68 14 2 14 C1.690625 14.61875 1.38125 15.2375 1.0625 15.875 C0.375 17.25 -0.3125 18.625 -1 20 C-1.66 20 -2.32 20 -3 20 C-3.66 21.32 -4.32 22.64 -5 24 C-5.66 23.34 -6.32 22.68 -7 22 C-5.7260411 19.96166576 -4.38938077 17.96147874 -3 16 C-2.34 16 -1.68 16 -1 16 C-0.34 14.68 0.32 13.36 1 12 C1.66 12 2.32 12 3 12 C1.85916824 8.96707046 1.85916824 8.96707046 0 6 C-2.58414426 5.03093173 -2.58414426 5.03093173 -5 5 C-3.625 3.5 -3.625 3.5 -2 2 C-1.34 2 -0.68 2 0 2 C0 1.34 0 0.68 0 0 Z " fill="#20BBBC" transform="translate(294,87)"/>
<path d="M0 0 C0.33 0 0.66 0 1 0 C1 1.65 1 3.3 1 5 C0.34 5 -0.32 5 -1 5 C-1 5.66 -1 6.32 -1 7 C-0.38125 6.79375 0.2375 6.5875 0.875 6.375 C1.57625 6.25125 2.2775 6.1275 3 6 C3.66 6.66 4.32 7.32 5 8 C4.01 8.33 3.02 8.66 2 9 C0.79117904 11.00016466 0.79117904 11.00016466 0 13 C-0.66 13 -1.32 13 -2 13 C-2.2475 13.639375 -2.495 14.27875 -2.75 14.9375 C-4 17 -4 17 -8 18 C-8 14.37 -8 10.74 -8 7 C-7.34 6.67 -6.68 6.34 -6 6 C-5.01 7.65 -4.02 9.3 -3 11 C-3 8.36 -3 5.72 -3 3 C-2.34 3 -1.68 3 -1 3 C-0.67 2.01 -0.34 1.02 0 0 Z " fill="#00AEB1" transform="translate(173,410)"/>
<path d="M0 0 C0.66 0.33 1.32 0.66 2 1 C1.67 1.33 1.34 1.66 1 2 C1.66 2.33 2.32 2.66 3 3 C2.43040847 6.62613199 1.07625466 8.25517741 -1.5625 10.75 C-2.20316406 11.36359375 -2.84382813 11.9771875 -3.50390625 12.609375 C-3.99761719 13.06828125 -4.49132812 13.5271875 -5 14 C-5.61875 13.1028125 -5.61875 13.1028125 -6.25 12.1875 C-7.9907299 10.01158763 -9.71695821 8.57451158 -12 7 C-7.25 4 -7.25 4 -5 4 C-5 3.34 -5 2.68 -5 2 C-2.625 0.9375 -2.625 0.9375 0 0 Z " fill="#1ABEC3" transform="translate(408,179)"/>
<path d="M0 0 C0.33 0 0.66 0 1 0 C2.00243409 4.98830295 2.156148 9.75015822 2.125 14.8125 C2.12089111 15.61276611 2.11678223 16.41303223 2.11254883 17.23754883 C2.03469516 25.45069179 1.6659518 32.50870719 -2 40 C-2.33 40 -2.66 40 -3 40 C-3.16272842 36.09451794 -3.0820314 33.28663111 -1.99609375 29.4921875 C-0.57741824 24.06650829 -0.82146599 18.69463246 -0.9375 13.125 C-0.97183046 11.06517255 -1.00199453 9.00527006 -1.02734375 6.9453125 C-1.04531006 6.04312988 -1.06327637 5.14094727 -1.08178711 4.21142578 C-1 2 -1 2 0 0 Z " fill="#11B5B8" transform="translate(122,235)"/>
<path d="M0 0 C0.5775 0.20625 1.155 0.4125 1.75 0.625 C1.75 1.285 1.75 1.945 1.75 2.625 C-6.85712471 5.78290412 -14.88583004 7.07869441 -24 7.5 C-25.46493896 7.57335571 -25.46493896 7.57335571 -26.95947266 7.64819336 C-32.20406436 7.82584318 -32.20406436 7.82584318 -34.25 7.625 C-34.91 6.965 -35.57 6.305 -36.25 5.625 C-29.32 5.625 -22.39 5.625 -15.25 5.625 C-14.92 4.635 -14.59 3.645 -14.25 2.625 C-13.0125 2.50125 -11.775 2.3775 -10.5 2.25 C-7.9550701 1.94532529 -6.31219287 1.65609643 -4 0.5 C-2.25 -0.375 -2.25 -0.375 0 0 Z " fill="#2BBCBF" transform="translate(139.25,179.375)"/>
<path d="M0 0 C0.33 0 0.66 0 1 0 C0.85764543 1.72945653 0.71095618 3.45855654 0.5625 5.1875 C0.48128906 6.15042969 0.40007812 7.11335938 0.31640625 8.10546875 C-0.12669883 12.15905962 -0.97777732 16.0571411 -2 20 C-5.18446935 14.08598549 -6.34333902 7.6951108 -6 1 C-3.525 1.495 -3.525 1.495 -1 2 C-0.67 1.34 -0.34 0.68 0 0 Z " fill="#00ACB4" transform="translate(313,405)"/>
<path d="M0 0 C0.33 0 0.66 0 1 0 C1 5.61 1 11.22 1 17 C-4.5383863 15.89232274 -4.93935128 15.32712406 -8 11 C-8.66 10.34 -9.32 9.68 -10 9 C-8.68 9 -7.36 9 -6 9 C-6.33 6.69 -6.66 4.38 -7 2 C-6.34 1.67 -5.68 1.34 -5 1 C-4.86722656 1.61488281 -4.73445313 2.22976563 -4.59765625 2.86328125 C-4.42105469 3.67152344 -4.24445313 4.47976563 -4.0625 5.3125 C-3.80146484 6.51326172 -3.80146484 6.51326172 -3.53515625 7.73828125 C-3.00113841 10.145401 -3.00113841 10.145401 -2 13 C-2.061875 11.453125 -2.061875 11.453125 -2.125 9.875 C-2.00424851 6.13170373 -1.35127982 3.46265453 0 0 Z " fill="#2CC7CE" transform="translate(313,411)"/>
<path d="M0 0 C-2.55160361 2.74061128 -5.4116257 4.86596981 -8.4375 7.0625 C-9.38496094 7.75472656 -10.33242187 8.44695312 -11.30859375 9.16015625 C-13.50331684 10.66046768 -15.58888382 11.89989262 -18 13 C-18 12.01 -18 11.02 -18 10 C-17 9 -16 8 -15 7 C-15 6.01 -15 5.02 -15 4 C-11.94736336 3.01879536 -10.05263664 3.01879536 -7 4 C-7.33 3.01 -7.66 2.02 -8 1 C-5.29120665 -0.35439668 -2.99066732 -0.06501451 0 0 Z " fill="#1EB9BD" transform="translate(198,402)"/>
<path d="M0 0 C3.5786304 1.65167557 6.74820188 3.78286492 10 6 C6.93109813 7.53445094 4.29905734 6.54984289 1 6 C0.67 7.98 0.34 9.96 0 12 C-3.73639216 10.75453595 -4.18756513 9.36595047 -6 6 C-4.35 6 -2.7 6 -1 6 C-0.67 4.02 -0.34 2.04 0 0 Z " fill="#28BFC2" transform="translate(181,86)"/>
<path d="M0 0 C-1.44253657 3.36591866 -3.33264727 5.51047079 -6 8 C-6 7.34 -6 6.68 -6 6 C-6.99 6 -7.98 6 -9 6 C-9.33 6.66 -9.66 7.32 -10 8 C-10.99 7.67 -11.98 7.34 -13 7 C-12.73828125 5.109375 -12.73828125 5.109375 -12 3 C-10.29296875 1.953125 -10.29296875 1.953125 -8.1875 1.25 C-7.15689453 0.88648438 -7.15689453 0.88648438 -6.10546875 0.515625 C-4 0 -4 0 0 0 Z " fill="#13B6BC" transform="translate(218,166)"/>
<path d="M0 0 C0 0.33 0 0.66 0 1 C-1.99508067 1.68124706 -3.99638693 2.34427209 -6 3 C-7.03125 3.350625 -8.0625 3.70125 -9.125 4.0625 C-14.33004573 5.32178526 -19.63309189 6.09772822 -25 6 C-25.66 5.34 -26.32 4.68 -27 4 C-25.77023438 3.80664062 -24.54046875 3.61328125 -23.2734375 3.4140625 C-21.64058272 3.15130426 -20.00777254 2.88826875 -18.375 2.625 C-17.56675781 2.49867188 -16.75851563 2.37234375 -15.92578125 2.2421875 C-12.33334758 1.65805194 -9.05668552 1.01941642 -5.6015625 -0.1640625 C-3 -1 -3 -1 0 0 Z " fill="#2CBFC0" transform="translate(111,170)"/>
<path d="M0 0 C2.31 0 4.62 0 7 0 C3.86125052 3.76649937 0.7881354 5.34131471 -4 6 C-8.00650693 6.15043205 -11.99303883 6.11843235 -16 6 C-12.36280395 3.57520264 -10.14296518 3.61337423 -5.8125 3.375 C-4.54019531 3.30023438 -3.26789063 3.22546875 -1.95703125 3.1484375 C-0.49330078 3.07496094 -0.49330078 3.07496094 1 3 C0.67 2.01 0.34 1.02 0 0 Z " fill="#18B1B3" transform="translate(379,139)"/>
<path d="M0 0 C4.41889613 1.35021826 6.34345343 3.26115668 9 7 C8.34 7 7.68 7 7 7 C7 7.99 7 8.98 7 10 C6.01 10 5.02 10 4 10 C3.67 8.68 3.34 7.36 3 6 C2.01 6 1.02 6 0 6 C0 4.02 0 2.04 0 0 Z " fill="#17B0B0" transform="translate(165,72)"/>
<path d="M0 0 C4.62 0 9.24 0 14 0 C14 1.66666667 14 3.33333333 14 5 C11.69 4.67 9.38 4.34 7 4 C7 4.66 7 5.32 7 6 C6.34 6 5.68 6 5 6 C5.33 4.35 5.66 2.7 6 1 C4.02 1.33 2.04 1.66 0 2 C0 1.34 0 0.68 0 0 Z " fill="#00AAB0" transform="translate(63,176)"/>
<path d="M0 0 C2 1 2 1 3 3 C3.66 2.01 4.32 1.02 5 0 C5.33 2.31 5.66 4.62 6 7 C5.01 7.33 4.02 7.66 3 8 C3 7.34 3 6.68 3 6 C1.68 6 0.36 6 -1 6 C-1.66 6.66 -2.32 7.32 -3 8 C-3.33 6.02 -3.66 4.04 -4 2 C-2.125 0.9375 -2.125 0.9375 0 0 Z " fill="#1CBABF" transform="translate(309,401)"/>
<path d="M0 0 C2 2 2 2 2.1953125 4.71484375 C2.17210937 5.77832031 2.14890625 6.84179688 2.125 7.9375 C2.10695313 8.99839844 2.08890625 10.05929688 2.0703125 11.15234375 C2.03550781 12.56193359 2.03550781 12.56193359 2 14 C2 14.99 2 15.98 2 17 C1.67 17.66 1.34 18.32 1 19 C-1 17 -1 17 -1.23046875 13.33984375 C-1.22647733 11.87233136 -1.21172158 10.40481791 -1.1875 8.9375 C-1.18685547 8.19177734 -1.18621094 7.44605469 -1.18554688 6.67773438 C-1.14028159 1.14028159 -1.14028159 1.14028159 0 0 Z " fill="#20BBBF" transform="translate(355,241)"/>
<path d="M0 0 C0.33 0 0.66 0 1 0 C1 1.65 1 3.3 1 5 C0.34 5 -0.32 5 -1 5 C-1 5.66 -1 6.32 -1 7 C-0.38125 6.79375 0.2375 6.5875 0.875 6.375 C1.57625 6.25125 2.2775 6.1275 3 6 C3.66 6.66 4.32 7.32 5 8 C4.01 8.33 3.02 8.66 2 9 C0.79117904 11.00016466 0.79117904 11.00016466 0 13 C-0.66 12.67 -1.32 12.34 -2 12 C-2.98995763 8.67014251 -3.19935628 6.27097167 -2 3 C-1.34 2.01 -0.68 1.02 0 0 Z " fill="#20C5C6" transform="translate(173,410)"/>
<path d="M0 0 C0.66 0.66 1.32 1.32 2 2 C2.66 1.67 3.32 1.34 4 1 C4 3.31 4 5.62 4 8 C3.01 8 2.02 8 1 8 C0.34 6.68 -0.32 5.36 -1 4 C-2.65 5.32 -4.3 6.64 -6 8 C-5.34 6.35 -4.68 4.7 -4 3 C-3.34 3 -2.68 3 -2 3 C-2 2.34 -2 1.68 -2 1 C-1.34 0.67 -0.68 0.34 0 0 Z M-9 7 C-7.515 7.99 -7.515 7.99 -6 9 C-6.99 9 -7.98 9 -9 9 C-9 8.34 -9 7.68 -9 7 Z " fill="#00ABB1" transform="translate(398,186)"/>
<path d="M0 0 C0.91078492 2.55019778 1.17843392 3.59554978 0.0625 6.125 C-0.288125 6.74375 -0.63875 7.3625 -1 8 C-1 8.66 -1 9.32 -1 10 C-3.3125 12.1875 -3.3125 12.1875 -6 14 C-6.99 13.67 -7.98 13.34 -9 13 C-8.05016642 11.49460339 -7.08988109 9.99579653 -6.125 8.5 C-5.32449219 7.24703125 -5.32449219 7.24703125 -4.5078125 5.96875 C-4.01023438 5.3190625 -3.51265625 4.669375 -3 4 C-2.34 4 -1.68 4 -1 4 C-0.67 2.68 -0.34 1.36 0 0 Z " fill="#2ABDC0" transform="translate(183,396)"/>
<path d="M0 0 C0.66 0 1.32 0 2 0 C4.21782516 6.65347548 2.77218088 12.75623481 0 19 C-0.66 19.66 -1.32 20.32 -2 21 C-2.33 19.35 -2.66 17.7 -3 16 C-2.34 16 -1.68 16 -1 16 C0.06723961 12.53777385 0.10173486 9.35960734 0.0625 5.75 C0.05347656 4.67234375 0.04445312 3.5946875 0.03515625 2.484375 C0.02355469 1.66453125 0.01195312 0.8446875 0 0 Z " fill="#1AB1B0" transform="translate(132,374)"/>
<path d="M0 0 C0.99 0 1.98 0 3 0 C2.67 1.32 2.34 2.64 2 4 C2.66 4 3.32 4 4 4 C4.33 3.34 4.66 2.68 5 2 C5.33 2.66 5.66 3.32 6 4 C5.0625 6.125 5.0625 6.125 4 8 C1.69 7.67 -0.62 7.34 -3 7 C-3.33 6.01 -3.66 5.02 -4 4 C-2.68 4 -1.36 4 0 4 C0 2.68 0 1.36 0 0 Z " fill="#00AFB8" transform="translate(393,302)"/>
<path d="M0 0 C2.475 0.495 2.475 0.495 5 1 C4.88487847 2.72985242 4.75744323 4.45888751 4.625 6.1875 C4.55539063 7.15042969 4.48578125 8.11335938 4.4140625 9.10546875 C3.99784147 12.01508938 3.20125904 14.32890774 2 17 C1.67 17 1.34 17 1 17 C0.67 14.36 0.34 11.72 0 9 C0.66 9 1.32 9 2 9 C2.33 7.02 2.66 5.04 3 3 C2.34 3 1.68 3 1 3 C0.67 2.01 0.34 1.02 0 0 Z " fill="#16B0B6" transform="translate(130,116)"/>
<path d="M0 0 C0.66 0 1.32 0 2 0 C0.06382979 6.70212766 0.06382979 6.70212766 -3 9 C-3.66 9 -4.32 9 -5 9 C-4.67 10.98 -4.34 12.96 -4 15 C-4.99 15.33 -5.98 15.66 -7 16 C-6.59080462 10.06666693 -5.81109992 6.61951506 -2 2 C-1.34 2 -0.68 2 0 2 C0 1.34 0 0.68 0 0 Z " fill="#32C1C5" transform="translate(37,231)"/>
<path d="M0 0 C0.99 0 1.98 0 3 0 C3 0.66 3 1.32 3 2 C-2.58772915 6.19079686 -9.14024135 7.34298793 -16 7 C-16 6.34 -16 5.68 -16 5 C-14.89591797 4.80083984 -14.89591797 4.80083984 -13.76953125 4.59765625 C-12.30580078 4.33275391 -12.30580078 4.33275391 -10.8125 4.0625 C-9.84957031 3.88847656 -8.88664062 3.71445313 -7.89453125 3.53515625 C-5.25760028 3.0476265 -2.6280095 2.53328895 0 2 C0 1.34 0 0.68 0 0 Z " fill="#31BDBE" transform="translate(122,139)"/>
<path d="M0 0 C-0.33 0.66 -0.66 1.32 -1 2 C-1.66 2 -2.32 2 -3 2 C-3.33 3.32 -3.66 4.64 -4 6 C-7.31726155 5.42805835 -8.72635823 4.42999536 -11 2 C-9.73392393 1.46770674 -8.46189588 0.94955456 -7.1875 0.4375 C-6.47980469 0.14746094 -5.77210938 -0.14257812 -5.04296875 -0.44140625 C-3 -1 -3 -1 0 0 Z M-9 6 C-7 7 -7 7 -7 7 Z " fill="#17B6BF" transform="translate(224,368)"/>
<path d="M0 0 C0.33 0.99 0.66 1.98 1 3 C0.01 4.485 0.01 4.485 -1 6 C-0.34 6.33 0.32 6.66 1 7 C0 10 0 10 -3.0625 11.6875 C-4.031875 12.120625 -5.00125 12.55375 -6 13 C-6.66 12.34 -7.32 11.68 -8 11 C-7.50628906 10.37351562 -7.01257813 9.74703125 -6.50390625 9.1015625 C-5.54291016 7.87566406 -5.54291016 7.87566406 -4.5625 6.625 C-3.92441406 5.81289063 -3.28632812 5.00078125 -2.62890625 4.1640625 C-0.97776453 2.10601894 -0.97776453 2.10601894 0 0 Z " fill="#34BEC6" transform="translate(83,296)"/>
<path d="M0 0 C1.32 0.33 2.64 0.66 4 1 C4.33 2.32 4.66 3.64 5 5 C3.68 5 2.36 5 1 5 C0.67 5.99 0.34 6.98 0 8 C0 7.34 0 6.68 0 6 C-1.32 5.67 -2.64 5.34 -4 5 C-2.68 3.35 -1.36 1.7 0 0 Z " fill="#0CB0BC" transform="translate(78,185)"/>
<path d="M0 0 C0.33 0.66 0.66 1.32 1 2 C1.66 2 2.32 2 3 2 C3.33 2.99 3.66 3.98 4 5 C2.875 6.5625 2.875 6.5625 1 8 C-2.1875 7.6875 -2.1875 7.6875 -5 7 C-5.33 6.01 -5.66 5.02 -6 4 C-4.35 3.67 -2.7 3.34 -1 3 C-0.67 2.01 -0.34 1.02 0 0 Z " fill="#21B9BE" transform="translate(407,312)"/>
<path d="M0 0 C0.33 0.66 0.66 1.32 1 2 C-1 4 -1 4 -3 5 C-3.33 5.66 -3.66 6.32 -4 7 C-4.99 7.66 -5.98 8.32 -7 9 C-7.33 9.66 -7.66 10.32 -8 11 C-10.475 10.01 -10.475 10.01 -13 9 C-8.91266859 5.55131413 -4.56194093 2.76206846 0 0 Z " fill="#21BCC0" transform="translate(288,92)"/>
<path d="M0 0 C3.63 0 7.26 0 11 0 C10.01 0.33 9.02 0.66 8 1 C8 1.99 8 2.98 8 4 C8.99 4.33 9.98 4.66 11 5 C11 5.33 11 5.66 11 6 C9.02 6.33 7.04 6.66 5 7 C5 6.34 5 5.68 5 5 C4.01 4.67 3.02 4.34 2 4 C2.66 3.34 3.32 2.68 4 2 C2.68 1.34 1.36 0.68 0 0 Z " fill="#16BCC2" transform="translate(50,224)"/>
<path d="M0 0 C0.66 0 1.32 0 2 0 C1.56744475 5.40694067 0.41778487 8.75366122 -3 13 C-3.66 13 -4.32 13 -5 13 C-4.54554036 11.58208592 -4.08625056 10.16571954 -3.625 8.75 C-3.24214844 7.56664062 -3.24214844 7.56664062 -2.8515625 6.359375 C-2.04826333 4.13372042 -1.10288338 2.09068328 0 0 Z " fill="#2CBABE" transform="translate(162,209)"/>
<path d="M0 0 C0.33 0.99 0.66 1.98 1 3 C-4.625 7 -4.625 7 -8 7 C-8.33 7.99 -8.66 8.98 -9 10 C-9.66 9.67 -10.32 9.34 -11 9 C-11 8.34 -11 7.68 -11 7 C-9.1015625 5.52734375 -9.1015625 5.52734375 -6.625 3.9375 C-5.81289062 3.41027344 -5.00078125 2.88304687 -4.1640625 2.33984375 C-2 1 -2 1 0 0 Z " fill="#1EBBBA" transform="translate(212,371)"/>
<path d="M0 0 C0.66 0 1.32 0 2 0 C1.58424938 4.85042388 -0.41659978 6.84319505 -4 10 C-4.99 10.66 -5.98 11.32 -7 12 C-7 11.01 -7 10.02 -7 9 C-6.360625 8.7525 -5.72125 8.505 -5.0625 8.25 C-2.83323057 7.20668205 -2.83323057 7.20668205 -2.375 5.0625 C-2.25125 4.381875 -2.1275 3.70125 -2 3 C-1.34 2.01 -0.68 1.02 0 0 Z " fill="#29BCC0" transform="translate(77,259)"/>
<path d="M0 0 C2.875 -0.125 2.875 -0.125 6 0 C6.66 0.66 7.32 1.32 8 2 C8.33 1.34 8.66 0.68 9 0 C8.75 1.875 8.75 1.875 8 4 C5.9375 5.25 5.9375 5.25 4 6 C4 5.34 4 4.68 4 4 C2.68 4 1.36 4 0 4 C0 2.68 0 1.36 0 0 Z " fill="#00ACB5" transform="translate(294,408)"/>
<path d="M0 0 C0.99 0.33 1.98 0.66 3 1 C3 1.66 3 2.32 3 3 C2.01 3 1.02 3 0 3 C-0.33 3.99 -0.66 4.98 -1 6 C-1.66 6 -2.32 6 -3 6 C-3 6.66 -3 7.32 -3 8 C-4.32 7.67 -5.64 7.34 -7 7 C-7 6.34 -7 5.68 -7 5 C-6.01 5 -5.02 5 -4 5 C-4.33 4.01 -4.66 3.02 -5 2 C-4.360625 1.855625 -3.72125 1.71125 -3.0625 1.5625 C-1.02454854 1.18992819 -1.02454854 1.18992819 0 0 Z " fill="#00AEAE" transform="translate(80,306)"/>
<path d="M0 0 C2 2 2 2 2 5 C1.34 5 0.68 5 0 5 C0.33 5.99 0.66 6.98 1 8 C0.01 8.33 -0.98 8.66 -2 9 C-2.66 8.34 -3.32 7.68 -4 7 C-3.8125 4.5 -3.8125 4.5 -3 2 C-2.01 1.34 -1.02 0.68 0 0 Z " fill="#00AEB3" transform="translate(333,168)"/>
<path d="M0 0 C0.99 0.33 1.98 0.66 3 1 C3 1.66 3 2.32 3 3 C2.34 3 1.68 3 1 3 C0.34 4.32 -0.32 5.64 -1 7 C-1.99 7 -2.98 7 -4 7 C-4.33 5.68 -4.66 4.36 -5 3 C-2.6875 1.4375 -2.6875 1.4375 0 0 Z " fill="#1CB8BB" transform="translate(127,394)"/>
<path d="M0 0 C0.99 0 1.98 0 3 0 C3 0.66 3 1.32 3 2 C3.66 2.33 4.32 2.66 5 3 C3.35 4.98 1.7 6.96 0 9 C-1.125 7.3125 -1.125 7.3125 -2 5 C-1.125 2.25 -1.125 2.25 0 0 Z " fill="#23BBC2" transform="translate(333,347)"/>
<path d="M0 0 C0.66 0.66 1.32 1.32 2 2 C0.37660195 3.70884005 -1.29319053 5.37446717 -3 7 C-3.66 7 -4.32 7 -5 7 C-5 7.66 -5 8.32 -5 9 C-5.66 9 -6.32 9 -7 9 C-7 9.66 -7 10.32 -7 11 C-7.66 10.67 -8.32 10.34 -9 10 C-9 9.01 -9 8.02 -9 7 C-7.28515625 5.4296875 -7.28515625 5.4296875 -5.0625 3.875 C-4.33160156 3.35679687 -3.60070312 2.83859375 -2.84765625 2.3046875 C-2.23792969 1.87414062 -1.62820312 1.44359375 -1 1 C-0.67 0.67 -0.34 0.34 0 0 Z " fill="#2DBEC0" transform="translate(100,296)"/>
<path d="M0 0 C0.33 0.66 0.66 1.32 1 2 C1.99 1.67 2.98 1.34 4 1 C4.33 1.66 4.66 2.32 5 3 C5.99 3 6.98 3 8 3 C8 4.32 8 5.64 8 7 C4.26512223 6.5020163 2.18762365 6.12508244 -1 4 C-0.67 2.68 -0.34 1.36 0 0 Z " fill="#1AB8BB" transform="translate(335,176)"/>
<path d="M0 0 C0.33 0.99 0.66 1.98 1 3 C-1.64284852 7.12284369 -4.8624895 9.4610731 -9 12 C-8.67 10.35 -8.34 8.7 -8 7 C-7.01 7 -6.02 7 -5 7 C-4.9175 6.401875 -4.835 5.80375 -4.75 5.1875 C-3.79544128 2.4033704 -2.42867729 1.56688858 0 0 Z " fill="#2CBCBF" transform="translate(161,162)"/>
<path d="M0 0 C2.14336161 3.4766338 2.21277626 6.21229195 2.125 10.25 C2.10695312 11.32765625 2.08890625 12.4053125 2.0703125 13.515625 C2.03550781 14.74539062 2.03550781 14.74539062 2 16 C1.34 16 0.68 16 0 16 C-0.16873478 14.56274129 -0.33490737 13.12518162 -0.5 11.6875 C-0.5928125 10.88699219 -0.685625 10.08648437 -0.78125 9.26171875 C-1.10479491 5.91649553 -0.88814849 3.21953829 0 0 Z " fill="#00A6AB" transform="translate(173,103)"/>
<path d="M0 0 C0 3 0 3 -1.875 5.1875 C-4 7 -4 7 -6 7 C-6.103125 7.763125 -6.20625 8.52625 -6.3125 9.3125 C-7.04364039 12.17059424 -7.76951913 13.15742885 -10 15 C-8.49198086 8.14536753 -6.00353304 4.00235536 0 0 Z " fill="#2ABDC1" transform="translate(355,98)"/>
<path d="M0 0 C0.66 0.33 1.32 0.66 2 1 C2 1.99 2 2.98 2 4 C2.66 4 3.32 4 4 4 C4.33 5.32 4.66 6.64 5 8 C2 8 2 8 -0.6875 5.5 C-1.450625 4.675 -2.21375 3.85 -3 3 C-2.01 2.01 -1.02 1.02 0 0 Z " fill="#21BDC1" transform="translate(386,300)"/>
<path d="M0 0 C1.21599132 3.64797397 0.3327695 4.79354263 -1.23046875 8.1484375 C-2.29334433 10.70581326 -2.66624666 13.26322257 -3 16 C-3.33 16 -3.66 16 -4 16 C-4.38095238 5.1005291 -4.38095238 5.1005291 -2 1 C-1.34 0.67 -0.68 0.34 0 0 Z " fill="#4FC9CD" transform="translate(87,369)"/>
<path d="M0 0 C0.99 0.33 1.98 0.66 3 1 C1.8553125 1.8971875 1.8553125 1.8971875 0.6875 2.8125 C-1.3483575 4.46959332 -3.1978279 6.10297674 -5 8 C-5.99 7.67 -6.98 7.34 -8 7 C-7.34 7 -6.68 7 -6 7 C-6.33 5.68 -6.66 4.36 -7 3 C-6.01 3 -5.02 3 -4 3 C-4 2.34 -4 1.68 -4 1 C-2.68 1.33 -1.36 1.66 0 2 C0 1.34 0 0.68 0 0 Z " fill="#1BBFC6" transform="translate(81,311)"/>
<path d="M0 0 C0.99 0 1.98 0 3 0 C3 0.66 3 1.32 3 2 C1.35 2.66 -0.3 3.32 -2 4 C-2 4.66 -2 5.32 -2 6 C-4.5 7.625 -4.5 7.625 -7 9 C-7.33 7.68 -7.66 6.36 -8 5 C-7.05125 4.54625 -6.1025 4.0925 -5.125 3.625 C-1.99686321 2.19761746 -1.99686321 2.19761746 0 0 Z " fill="#2BC2C2" transform="translate(280,116)"/>
<path d="M0 0 C0.33 0 0.66 0 1 0 C1 5.61 1 11.22 1 17 C0.01 17 -0.98 17 -2 17 C-2.33 16.01 -2.66 15.02 -3 14 C-2.34 14 -1.68 14 -1 14 C-1.20625 12.80375 -1.4125 11.6075 -1.625 10.375 C-2.13581838 6.4423982 -1.56734717 3.6878757 0 0 Z " fill="#2FBDC1" transform="translate(313,411)"/>
<path d="M0 0 C0 0.66 0 1.32 0 2 C-0.66 2 -1.32 2 -2 2 C-2.66 3.65 -3.32 5.3 -4 7 C-4.66 7 -5.32 7 -6 7 C-6.33 7.66 -6.66 8.32 -7 9 C-8.32 8.34 -9.64 7.68 -11 7 C-9.54634731 5.82750647 -8.08692581 4.66216184 -6.625 3.5 C-5.40683594 2.52546875 -5.40683594 2.52546875 -4.1640625 1.53125 C-2 0 -2 0 0 0 Z " fill="#35C3C5" transform="translate(396,187)"/>
<path d="M0 0 C2 2 2 2 2 5 C2.99 5.33 3.98 5.66 5 6 C3.68 7.32 2.36 8.64 1 10 C1 8.35 1 6.7 1 5 C0.34 5 -0.32 5 -1 5 C-1.33 5.66 -1.66 6.32 -2 7 C-2.6875 5.1875 -2.6875 5.1875 -3 3 C-1.5625 1.25 -1.5625 1.25 0 0 Z " fill="#13B9C0" transform="translate(397,189)"/>
<path d="M0 0 C1.32 0.33 2.64 0.66 4 1 C3.34 5.29 2.68 9.58 2 14 C1.34 12.68 0.68 11.36 0 10 C0.66 10 1.32 10 2 10 C1.855625 9.36191406 1.71125 8.72382813 1.5625 8.06640625 C1.2840625 6.82697266 1.2840625 6.82697266 1 5.5625 C0.814375 4.73878906 0.62875 3.91507812 0.4375 3.06640625 C0 1 0 1 0 0 Z " fill="#21BEC5" transform="translate(314,385)"/>
<path d="M0 0 C0.763125 0.20625 1.52625 0.4125 2.3125 0.625 C0.9196787 3.4106426 -0.99176398 4.14876361 -3.6875 5.625 C-4.6775 5.955 -5.6675 6.285 -6.6875 6.625 C-6.375 4.25 -6.375 4.25 -5.6875 1.625 C-2.6875 -0.375 -2.6875 -0.375 0 0 Z " fill="#2FBFC5" transform="translate(348.6875,338.375)"/>
<path d="M0 0 C0.33 0.66 0.66 1.32 1 2 C0.67 2.66 0.34 3.32 0 4 C-0.66 4 -1.32 4 -2 4 C-2 4.66 -2 5.32 -2 6 C-1.34 6.33 -0.68 6.66 0 7 C-3 9 -3 9 -7 9 C-5.59257936 5.48144841 -4.33533477 4.61387166 -1 3 C-0.67 2.01 -0.34 1.02 0 0 Z " fill="#36C5C8" transform="translate(68,315)"/>
<path d="M0 0 C1.32 0.99 2.64 1.98 4 3 C2.5882217 3.53394179 1.17029756 4.05165104 -0.25 4.5625 C-1.03890625 4.85253906 -1.8278125 5.14257812 -2.640625 5.44140625 C-5.19103452 6.04522837 -6.55322229 5.8473932 -9 5 C-7 3 -7 3 -3.9375 2.5 C-2.4834375 2.2525 -2.4834375 2.2525 -1 2 C-0.67 1.34 -0.34 0.68 0 0 Z " fill="#28BCC4" transform="translate(249,454)"/>
<path d="M0 0 C0 0.66 0 1.32 0 2 C-2.31 2 -4.62 2 -7 2 C-7.33 2.99 -7.66 3.98 -8 5 C-8.66 5 -9.32 5 -10 5 C-10 4.34 -10 3.68 -10 3 C-10.66 2.34 -11.32 1.68 -12 1 C-7.9472484 0.01751476 -4.16138263 -0.08159574 0 0 Z " fill="#29BBC3" transform="translate(243,408)"/>
<path d="M0 0 C2.61047801 1.305239 2.68066423 2.35826574 3.625 5.0625 C3.88539062 5.79597656 4.14578125 6.52945312 4.4140625 7.28515625 C4.60742188 7.85105469 4.80078125 8.41695313 5 9 C4.34 9.66 3.68 10.32 3 11 C2.30034557 9.73581754 1.61565237 8.46334598 0.9375 7.1875 C0.55464844 6.47980469 0.17179687 5.77210938 -0.22265625 5.04296875 C-1 3 -1 3 0 0 Z " fill="#2BC3C3" transform="translate(85,385)"/>
<path d="M0 0 C0.99 0.66 1.98 1.32 3 2 C2.34 2 1.68 2 1 2 C0.34 3.32 -0.32 4.64 -1 6 C-1.66 6 -2.32 6 -3 6 C-3.33 6.99 -3.66 7.98 -4 9 C-4.99 9.33 -5.98 9.66 -7 10 C-6 8 -5 6 -4 4 C-3.34 4 -2.68 4 -2 4 C-2 3.34 -2 2.68 -2 2 C-1.34 2 -0.68 2 0 2 C0 1.34 0 0.68 0 0 Z " fill="#2CBEC2" transform="translate(299,309)"/>
<path d="M0 0 C0.99 0 1.98 0 3 0 C3.55808089 1.43120744 4.09596462 2.87030355 4.625 4.3125 C4.92664063 5.11300781 5.22828125 5.91351563 5.5390625 6.73828125 C5.69117188 7.48464844 5.84328125 8.23101562 6 9 C5.01 10.485 5.01 10.485 4 12 C3.3291288 10.3767313 2.66342971 8.75132422 2 7.125 C1.62875 6.22007812 1.2575 5.31515625 0.875 4.3828125 C0 2 0 2 0 0 Z " fill="#29BDC1" transform="translate(157,278)"/>
<path d="M0 0 C-0.33 0.99 -0.66 1.98 -1 3 C-3.25 4.0625 -3.25 4.0625 -6 5 C-6.928125 5.37125 -7.85625 5.7425 -8.8125 6.125 C-9.534375 6.41375 -10.25625 6.7025 -11 7 C-3.96875 -1.984375 -3.96875 -1.984375 0 0 Z " fill="#37C2C4" transform="translate(414,227)"/>
<path d="M0 0 C0.66 0 1.32 0 2 0 C1.88490339 1.41750563 1.75746342 2.83401169 1.625 4.25 C1.55539063 5.03890625 1.48578125 5.8278125 1.4140625 6.640625 C0.98492887 9.085877 0.21399362 10.84836903 -1 13 C-2.07310858 9.72814447 -1.89263102 7.57052408 -1.0625 4.25 C-0.86785156 3.45078125 -0.67320312 2.6515625 -0.47265625 1.828125 C-0.31667969 1.22484375 -0.16070312 0.6215625 0 0 Z " fill="#27BDC1" transform="translate(172,399)"/>
<path d="M0 0 C2.475 0.495 2.475 0.495 5 1 C5.061875 1.61875 5.12375 2.2375 5.1875 2.875 C5.828919 5.27761141 5.828919 5.27761141 8.5625 6.25 C9.366875 6.4975 10.17125 6.745 11 7 C10.01 7.495 10.01 7.495 9 8 C8.67 8.66 8.34 9.32 8 10 C7.67386719 9.52949219 7.34773437 9.05898438 7.01171875 8.57421875 C6.35623047 7.64029297 6.35623047 7.64029297 5.6875 6.6875 C5.25824219 6.07261719 4.82898438 5.45773437 4.38671875 4.82421875 C3.04070466 3.05354669 1.60807197 1.53261991 0 0 Z " fill="#30C1C5" transform="translate(139,348)"/>
<path d="M0 0 C2.97 1.98 2.97 1.98 6 4 C5.34 4.66 4.68 5.32 4 6 C1.375 5.625 1.375 5.625 -1 5 C-1.33 4.01 -1.66 3.02 -2 2 C-1.34 1.34 -0.68 0.68 0 0 Z " fill="#2EBCC5" transform="translate(88,190)"/>
<path d="M0 0 C1.65 0 3.3 0 5 0 C4.67 1.98 4.34 3.96 4 6 C3.01 5.67 2.02 5.34 1 5 C1 4.34 1 3.68 1 3 C0.34 3 -0.32 3 -1 3 C-0.67 2.01 -0.34 1.02 0 0 Z " fill="#18B7B9" transform="translate(64,177)"/>
<path d="M0 0 C0.58265625 0.21527344 1.1653125 0.43054688 1.765625 0.65234375 C0.69455383 1.52183692 -0.39183444 2.3724858 -1.484375 3.21484375 C-2.08765625 3.69050781 -2.6909375 4.16617188 -3.3125 4.65625 C-5.234375 5.65234375 -5.234375 5.65234375 -7.46875 5.3046875 C-8.05140625 5.08941406 -8.6340625 4.87414062 -9.234375 4.65234375 C-8.16330383 3.78285058 -7.07691556 2.9322017 -5.984375 2.08984375 C-5.38109375 1.61417969 -4.7778125 1.13851562 -4.15625 0.6484375 C-2.234375 -0.34765625 -2.234375 -0.34765625 0 0 Z " fill="#36BEC5" transform="translate(134.234375,157.34765625)"/>
<path d="M0 0 C0 0.33 0 0.66 0 1 C-4 2.33333333 -8 3.66666667 -12 5 C-11 2 -11 2 -8.25 0.25 C-4.82103483 -1.06883276 -3.42681118 -1.10867421 0 0 Z " fill="#27BAC0" transform="translate(366,332)"/>
<path d="M0 0 C0.103125 0.639375 0.20625 1.27875 0.3125 1.9375 C0.539375 2.618125 0.76625 3.29875 1 4 C1.99 4.33 2.98 4.66 4 5 C2.35 6.98 0.7 8.96 -1 11 C-2.60080151 6.99799622 -1.29279692 3.95443764 0 0 Z " fill="#27C1C3" transform="translate(98,261)"/>
<path d="M0 0 C4.29 0 8.58 0 13 0 C12.67 1.32 12.34 2.64 12 4 C11.67 3.34 11.34 2.68 11 2 C9.68 2.33 8.36 2.66 7 3 C7 2.34 7 1.68 7 1 C4.69 1 2.38 1 0 1 C0 0.67 0 0.34 0 0 Z " fill="#71D5D5" transform="translate(404,175)"/>
<path d="M0 0 C0.66 0 1.32 0 2 0 C2.33 1.65 2.66 3.3 3 5 C3.66 5 4.32 5 5 5 C4.34 7.31 3.68 9.62 3 12 C2.67 12 2.34 12 2 12 C1.34 8.04 0.68 4.08 0 0 Z " fill="#32BEC4" transform="translate(159,381)"/>
<path d="M0 0 C1.32 0.33 2.64 0.66 4 1 C4.66 3.31 5.32 5.62 6 8 C5.01 8 4.02 8 3 8 C0 2.25 0 2.25 0 0 Z " fill="#2AC0C1" transform="translate(399,258)"/>
<path d="M0 0 C0.66 0 1.32 0 2 0 C3.2890625 1.53125 3.2890625 1.53125 4.625 3.5 C5.07101563 4.1496875 5.51703125 4.799375 5.9765625 5.46875 C6.31429687 5.9740625 6.65203125 6.479375 7 7 C6.01 7.495 6.01 7.495 5 8 C2.5 5.6875 2.5 5.6875 0 3 C0 2.01 0 1.02 0 0 Z " fill="#31C0C0" transform="translate(106,207)"/>
<path d="M0 0 C1.32 0 2.64 0 4 0 C4 1.65 4 3.3 4 5 C2.68 5.33 1.36 5.66 0 6 C-0.38218767 4.34385343 -0.71395102 2.67542976 -1 1 C-0.67 0.67 -0.34 0.34 0 0 Z " fill="#00ACB2" transform="translate(394,194)"/>
<path d="M0 0 C2.31 0.33 4.62 0.66 7 1 C5 3 5 3 2.9375 3.4375 C1.9784375 3.7159375 1.9784375 3.7159375 1 4 C0.67 4.99 0.34 5.98 0 7 C-0.99 5.68 -1.98 4.36 -3 3 C-2.01 2.67 -1.02 2.34 0 2 C0 1.34 0 0.68 0 0 Z " fill="#2CCBD4" transform="translate(70,180)"/>
<path d="M0 0 C1.32 1.32 2.64 2.64 4 4 C1.10765685 4.82638376 -0.88742431 5 -4 5 C-4 4.34 -4 3.68 -4 3 C-2 1.375 -2 1.375 0 0 Z " fill="#09B2BB" transform="translate(176,412)"/>
<path d="M0 0 C0.66 0 1.32 0 2 0 C1.7834375 1.051875 1.7834375 1.051875 1.5625 2.125 C0.98521625 5.07556141 0.48304859 8.03270151 0 11 C-0.66 11 -1.32 11 -2 11 C-1.85957123 9.35369672 -1.71250671 7.70795821 -1.5625 6.0625 C-1.48128906 5.14597656 -1.40007812 4.22945312 -1.31640625 3.28515625 C-1 1 -1 1 0 0 Z " fill="#2BB6C2" transform="translate(399,240)"/>
<path d="M0 0 C1.32 1.32 2.64 2.64 4 4 C3.34 4 2.68 4 2 4 C2 4.99 2 5.98 2 7 C1.01 7 0.02 7 -1 7 C-1.33 5.35 -1.66 3.7 -2 2 C-1.34 2 -0.68 2 0 2 C0 1.34 0 0.68 0 0 Z " fill="#20BDC9" transform="translate(170,75)"/>
<path d="M0 0 C2.875 -0.125 2.875 -0.125 6 0 C6.66 0.66 7.32 1.32 8 2 C7 3 7 3 3.4375 3.0625 C2.303125 3.041875 1.16875 3.02125 0 3 C0 2.01 0 1.02 0 0 Z " fill="#2EBFC5" transform="translate(366,403)"/>
<path d="M0 0 C0.33 0.66 0.66 1.32 1 2 C2.32 1.67 3.64 1.34 5 1 C4.38722388 3.96175123 3.74627478 5.38058783 2 8 C1.01 5.69 0.02 3.38 -1 1 C-0.67 0.67 -0.34 0.34 0 0 Z " fill="#1ABBBF" transform="translate(163,289)"/>
<path d="M0 0 C0.33 0 0.66 0 1 0 C1 1.65 1 3.3 1 5 C1.66 5 2.32 5 3 5 C3.80967438 7.91482778 4.21845993 9.46113217 3.0625 12.3125 C2.5365625 13.1478125 2.5365625 13.1478125 2 14 C0.66416101 9.15758367 -0.25328119 5.06562383 0 0 Z " fill="#31CBCC" transform="translate(154,264)"/>
<path d="M0 0 C2.31 0 4.62 0 7 0 C4.47211993 2.79872437 2.79588866 4.45773019 -1 5 C-1 4.34 -1 3.68 -1 3 C-0.34 3 0.32 3 1 3 C0.67 2.01 0.34 1.02 0 0 Z " fill="#26BCBF" transform="translate(379,139)"/>
<path d="M0 0 C2.475 0.495 2.475 0.495 5 1 C5 1.66 5 2.32 5 3 C6.32 3.33 7.64 3.66 9 4 C8.67 4.99 8.34 5.98 8 7 C6.66382648 6.02471263 5.3311249 5.04466681 4 4.0625 C3.2575 3.51722656 2.515 2.97195313 1.75 2.41015625 C1.1725 1.94480469 0.595 1.47945313 0 1 C0 0.67 0 0.34 0 0 Z " fill="#44CDCD" transform="translate(285,405)"/>
<path d="M0 0 C2.64279294 1.53003802 3.34056141 2.55380386 4.375 5.375 C3.67375 5.08625 2.9725 4.7975 2.25 4.5 C-0.67952503 3.35366412 -3.63421653 2.34874346 -6.625 1.375 C-4.05054439 -0.34130374 -3.07144947 -0.73129749 0 0 Z " fill="#35C4C6" transform="translate(273.625,395.625)"/>
<path d="M0 0 C0.556875 0.391875 1.11375 0.78375 1.6875 1.1875 C-4.9375 4.0625 -4.9375 4.0625 -8.3125 5.1875 C-7.3125 2.1875 -7.3125 2.1875 -5 0.375 C-2.3125 -0.8125 -2.3125 -0.8125 0 0 Z " fill="#3FC7C8" transform="translate(209.3125,395.8125)"/>
<path d="M0 0 C0.33 0.66 0.66 1.32 1 2 C1.66 2 2.32 2 3 2 C2.67 3.65 2.34 5.3 2 7 C0.68 6.67 -0.64 6.34 -2 6 C-1.34 4.02 -0.68 2.04 0 0 Z " fill="#1AB9BD" transform="translate(317,378)"/>
<path d="M0 0 C1.875 0.3125 1.875 0.3125 4 1 C4.66 1.99 5.32 2.98 6 4 C4.68 4.33 3.36 4.66 2 5 C2 4.34 2 3.68 2 3 C1.01 3 0.02 3 -1 3 C-0.67 2.01 -0.34 1.02 0 0 Z " fill="#13B8C2" transform="translate(257,330)"/>
<path d="M0 0 C0.99 0 1.98 0 3 0 C2.01 2.97 1.02 5.94 0 9 C-0.33 9 -0.66 9 -1 9 C-1.125 2.25 -1.125 2.25 0 0 Z " fill="#42C4C5" transform="translate(120,266)"/>
<path d="M0 0 C0.99 0.33 1.98 0.66 3 1 C1.25 5.875 1.25 5.875 -1 7 C-1.66 6.34 -2.32 5.68 -3 5 C-2.01 3.35 -1.02 1.7 0 0 Z " fill="#22BCBD" transform="translate(166,202)"/>
<path d="M0 0 C0.66 0.99 1.32 1.98 2 3 C1.67 3.66 1.34 4.32 1 5 C1.66 5.33 2.32 5.66 3 6 C2.01 6.33 1.02 6.66 0 7 C-0.33 7.66 -0.66 8.32 -1 9 C-1 8.01 -1 7.02 -1 6 C-1.66 5.67 -2.32 5.34 -3 5 C-2.01 3.35 -1.02 1.7 0 0 Z " fill="#1FBBB9" transform="translate(148,140)"/>
<path d="M0 0 C0.66 0.99 1.32 1.98 2 3 C0.6875 5.5 0.6875 5.5 -1 8 C-1.99 8 -2.98 8 -4 8 C-4 7.01 -4 6.02 -4 5 C-3.01 5 -2.02 5 -1 5 C-0.67 3.35 -0.34 1.7 0 0 Z " fill="#1CBDC3" transform="translate(174,79)"/>
<path d="M0 0 C0.99 0.33 1.98 0.66 3 1 C3 1.99 3 2.98 3 4 C3.66 4 4.32 4 5 4 C4.67 4.99 4.34 5.98 4 7 C2.02 5.35 0.04 3.7 -2 2 C-1.34 1.34 -0.68 0.68 0 0 Z " fill="#25C0C3" transform="translate(221,81)"/>
<path d="M0 0 C2.31 1.98 4.62 3.96 7 6 C6.34 6.66 5.68 7.32 5 8 C5 7.34 5 6.68 5 6 C3.68 5.67 2.36 5.34 1 5 C0.67 3.35 0.34 1.7 0 0 Z " fill="#27BEBF" transform="translate(151,325)"/>
<path d="M0 0 C0 3 0 3 -2 5.1875 C-2.66 5.785625 -3.32 6.38375 -4 7 C-4.99 6.67 -5.98 6.34 -7 6 C-6.67 5.34 -6.34 4.68 -6 4 C-5.34 4 -4.68 4 -4 4 C-4 3.34 -4 2.68 -4 2 C-2.68 1.34 -1.36 0.68 0 0 Z " fill="#23BCBD" transform="translate(333,321)"/>
<path d="M0 0 C0.66 0 1.32 0 2 0 C2 2.97 2 5.94 2 9 C1.34 9 0.68 9 0 9 C-0.87890625 2.84765625 -0.87890625 2.84765625 -1 1 C-0.67 0.67 -0.34 0.34 0 0 Z " fill="#30C3CA" transform="translate(324,237)"/>
<path d="M0 0 C3 0 3 0 5.6875 2.5 C6.450625 3.325 7.21375 4.15 8 5 C7.67 5.66 7.34 6.32 7 7 C5.68 6.34 4.36 5.68 3 5 C3 4.34 3 3.68 3 3 C2.01 3 1.02 3 0 3 C0 2.01 0 1.02 0 0 Z " fill="#4FC6CB" transform="translate(98,200)"/>
<path d="M0 0 C0.97608217 2.92824652 1.08226668 4.95613276 1 8 C0.67 7.34 0.34 6.68 0 6 C-2.02463255 5.34786708 -2.02463255 5.34786708 -4 5 C-2.68 3.35 -1.36 1.7 0 0 Z " fill="#00AEB4" transform="translate(78,185)"/>
<path d="M0 0 C2.9719385 1.12451727 5.33440687 2.22293791 8 4 C7.67 4.66 7.34 5.32 7 6 C4.0625 5.25 4.0625 5.25 1 4 C0.125 1.875 0.125 1.875 0 0 Z " fill="#4FCBCD" transform="translate(283,175)"/>
<path d="M0 0 C0.33 0.66 0.66 1.32 1 2 C-2.44615385 7.78461538 -2.44615385 7.78461538 -5.25 8.875 C-5.8275 8.91625 -6.405 8.9575 -7 9 C-7 8.34 -7 7.68 -7 7 C-6.34 7 -5.68 7 -5 7 C-5 6.34 -5 5.68 -5 5 C-3.37446717 3.29319053 -1.70884005 1.62339805 0 0 Z " fill="#52CBCD" transform="translate(144,146)"/>
<path d="M0 0 C1.125 1.6875 1.125 1.6875 2 4 C1.125 6.75 1.125 6.75 0 9 C-0.33 9 -0.66 9 -1 9 C-1.33 6.36 -1.66 3.72 -2 1 C-1.34 0.67 -0.68 0.34 0 0 Z " fill="#25BDC0" transform="translate(132,124)"/>
<path d="M0 0 C0.99 0.33 1.98 0.66 3 1 C3 2.65 3 4.3 3 6 C2.01 6.33 1.02 6.66 0 7 C-0.93423645 3.98968256 -1.04449911 3.13349732 0 0 Z " fill="#14B4B9" transform="translate(297,92)"/>
<path d="M0 0 C0.6875 1.6875 0.6875 1.6875 1 4 C-0.3125 6.75 -0.3125 6.75 -2 9 C-2.66 9 -3.32 9 -4 9 C-2.94124926 5.59687262 -1.99097846 2.98646769 0 0 Z " fill="#32C2C3" transform="translate(219,49)"/>
<path d="M0 0 C0.33 0.66 0.66 1.32 1 2 C3.01669827 3.13350534 3.01669827 3.13350534 5 4 C4.34 4.66 3.68 5.32 3 6 C2.34 7.32 1.68 8.64 1 10 C0.67 6.7 0.34 3.4 0 0 Z " fill="#3AC7CB" transform="translate(162,394)"/>
<path d="M0 0 C0.33 0.66 0.66 1.32 1 2 C0.06553465 4.03144641 -0.93224776 6.03533587 -2 8 C-2.66 7.34 -3.32 6.68 -4 6 C-4 5.01 -4 4.02 -4 3 C-3.34 3 -2.68 3 -2 3 C-2 2.34 -2 1.68 -2 1 C-1.34 0.67 -0.68 0.34 0 0 Z " fill="#31C0C4" transform="translate(133,387)"/>
<path d="M0 0 C0.66 0.33 1.32 0.66 2 1 C-1.44615385 6.78461538 -1.44615385 6.78461538 -4.25 7.875 C-4.8275 7.91625 -5.405 7.9575 -6 8 C-6 7.34 -6 6.68 -6 6 C-5.34 6 -4.68 6 -4 6 C-4 5.34 -4 4.68 -4 4 C-2.70766393 2.62689293 -1.37562854 1.28965176 0 0 Z " fill="#4CC7C9" transform="translate(199,379)"/>
<path d="M0 0 C0.99 0 1.98 0 3 0 C3.33 1.98 3.66 3.96 4 6 C2.68 5.67 1.36 5.34 0 5 C0 3.35 0 1.7 0 0 Z " fill="#27BABC" transform="translate(195,321)"/>
<path d="M0 0 C0.99 1.32 1.98 2.64 3 4 C0 5 0 5 -3 4 C-3.33 3.01 -3.66 2.02 -4 1 C-2.68 0.67 -1.36 0.34 0 0 Z " fill="#21CDD7" transform="translate(405,315)"/>
<path d="M0 0 C2.1875 0.3125 2.1875 0.3125 4 1 C2.35 2.32 0.7 3.64 -1 5 C-1.66 4.34 -2.32 3.68 -3 3 C-1.75 1.4375 -1.75 1.4375 0 0 Z " fill="#20B9C4" transform="translate(78,304)"/>
<path d="M0 0 C4 4.625 4 4.625 4 8 C0.21284635 5.55667506 0.21284635 5.55667506 -0.8125 2.875 C-0.874375 2.25625 -0.93625 1.6375 -1 1 C-0.67 0.67 -0.34 0.34 0 0 Z " fill="#20BBBF" transform="translate(388,286)"/>
<path d="M0 0 C2.49361571 1.20381448 4.68143083 2.45428722 7 4 C6.67 4.99 6.34 5.98 6 7 C5.34 6.67 4.68 6.34 4 6 C4 5.34 4 4.68 4 4 C3.01 3.67 2.02 3.34 1 3 C0.67 2.01 0.34 1.02 0 0 Z " fill="#37BFC5" transform="translate(194,95)"/>
<path d="M0 0 C2 3 2 3 1.625 5.1875 C1.41875 5.785625 1.2125 6.38375 1 7 C0.01 6.67 -0.98 6.34 -2 6 C-2 4.35 -2 2.7 -2 1 C-1.34 0.67 -0.68 0.34 0 0 Z " fill="#00AEAE" transform="translate(251,81)"/>
<path d="M0 0 C0.99 0 1.98 0 3 0 C2.25 1.9375 2.25 1.9375 1 4 C-1.125 4.75 -1.125 4.75 -3 5 C-3 4.01 -3 3.02 -3 2 C-2.01 2 -1.02 2 0 2 C0 1.34 0 0.68 0 0 Z " fill="#4CC4C6" transform="translate(168,423)"/>
<path d="M0 0 C0.99 0 1.98 0 3 0 C2.1875 2.4375 2.1875 2.4375 1 5 C0.01 5.33 -0.98 5.66 -2 6 C-1.34 4.02 -0.68 2.04 0 0 Z " fill="#32C1C4" transform="translate(217,420)"/>
<path d="M0 0 C1.7074998 1.28062485 3.37373596 2.61767557 5 4 C5 4.66 5 5.32 5 6 C3.68 6 2.36 6 1 6 C0.67 4.02 0.34 2.04 0 0 Z " fill="#2EC0C4" transform="translate(126,361)"/>
<path d="M0 0 C0.99 0.33 1.98 0.66 3 1 C2.34 3.31 1.68 5.62 1 8 C0.34 7.67 -0.32 7.34 -1 7 C-0.67 4.69 -0.34 2.38 0 0 Z " fill="#15B7C1" transform="translate(153,360)"/>
<path d="M0 0 C0.66 0 1.32 0 2 0 C1.34 1.98 0.68 3.96 0 6 C-1.65 5.67 -3.3 5.34 -5 5 C-3.625 3.5 -3.625 3.5 -2 2 C-1.34 2 -0.68 2 0 2 C0 1.34 0 0.68 0 0 Z " fill="#1FBCBF" transform="translate(96,357)"/>
<path d="M0 0 C0.33 0.99 0.66 1.98 1 3 C1.66 3.33 2.32 3.66 3 4 C3 4.99 3 5.98 3 7 C1.68 7.33 0.36 7.66 -1 8 C-0.67 5.36 -0.34 2.72 0 0 Z " fill="#1FBCC0" transform="translate(305,355)"/>
<path d="M0 0 C0.33 0.66 0.66 1.32 1 2 C1.66 2.33 2.32 2.66 3 3 C2.01 3.495 2.01 3.495 1 4 C0.34 3.67 -0.32 3.34 -1 3 C-1.33 4.32 -1.66 5.64 -2 7 C-2.99 6.67 -3.98 6.34 -5 6 C-3.625 4 -3.625 4 -2 2 C-1.34 2 -0.68 2 0 2 C0 1.34 0 0.68 0 0 Z " fill="#42C9CB" transform="translate(74,308)"/>
<path d="M0 0 C0.66 0 1.32 0 2 0 C1.690625 0.598125 1.38125 1.19625 1.0625 1.8125 C-0.10209704 4.08956772 -0.10209704 4.08956772 -1 7 C-1.99 6.67 -2.98 6.34 -4 6 C-2.7260411 3.96166576 -1.38938077 1.96147874 0 0 Z " fill="#2EBCC2" transform="translate(167,154)"/>
<path d="M0 0 C0.66 0.33 1.32 0.66 2 1 C1.3125 2.9375 1.3125 2.9375 0 5 C-2.625 5.75 -2.625 5.75 -5 6 C-3.35 4.02 -1.7 2.04 0 0 Z " fill="#27BCBE" transform="translate(93,99)"/>
<path d="M0 0 C3.35595828 0.59927826 5.37801226 1.84622436 8 4 C6.25 4.75 6.25 4.75 4 5 C1.75 3.125 1.75 3.125 0 1 C0 0.67 0 0.34 0 0 Z " fill="#34C4C4" transform="translate(376,95)"/>
<path d="M0 0 C1.32 0.33 2.64 0.66 4 1 C3.67 2.32 3.34 3.64 3 5 C1.35 5 -0.3 5 -2 5 C-1.34 3.35 -0.68 1.7 0 0 Z " fill="#00ADB8" transform="translate(177,87)"/>
</svg>
